<svg viewBox="0 0 600 340" xmlns="http://www.w3.org/2000/svg" role="img" aria-label="Code editor placeholder">
  <rect width="600" height="340" fill="#0b1228"/>
  <rect width="600" height="46" fill="#131d40"/>
  <circle cx="30" cy="23" r="6" fill="#ff5f57"/>
  <circle cx="52" cy="23" r="6" fill="#febc2e"/>
  <circle cx="74" cy="23" r="6" fill="#28c840"/>
  <rect x="250" y="17" width="100" height="12" rx="6" fill="#1e2a55"/>

  <rect x="40" y="82" width="55" height="11" rx="5.5" fill="#c792ea"/>
  <rect x="105" y="82" width="95" height="11" rx="5.5" fill="#82aaff"/>
  <rect x="210" y="82" width="30" height="11" rx="5.5" fill="#f7fdfd"/>
  <rect x="250" y="82" width="18" height="11" rx="5.5" fill="#9aa0ab"/>

  <rect x="70" y="114" width="70" height="11" rx="5.5" fill="#f7fdfd"/>
  <rect x="150" y="114" width="16" height="11" rx="5.5" fill="#89ddff"/>
  <rect x="176" y="114" width="150" height="11" rx="5.5" fill="#c3e88d"/>

  <rect x="70" y="146" width="60" height="11" rx="5.5" fill="#82aaff"/>
  <rect x="140" y="146" width="14" height="11" rx="5.5" fill="#89ddff"/>
  <rect x="164" y="146" width="45" height="11" rx="5.5" fill="#f78c6c"/>

  <rect x="100" y="178" width="50" height="11" rx="5.5" fill="#c792ea"/>
  <rect x="160" y="178" width="110" height="11" rx="5.5" fill="#006DFF"/>
  <rect x="280" y="178" width="26" height="11" rx="5.5" fill="#f7fdfd"/>

  <rect x="100" y="210" width="80" height="11" rx="5.5" fill="#f7fdfd"/>
  <rect x="190" y="210" width="16" height="11" rx="5.5" fill="#89ddff"/>
  <rect x="216" y="210" width="120" height="11" rx="5.5" fill="#c3e88d"/>

  <rect x="70" y="242" width="20" height="11" rx="5.5" fill="#f7fdfd"/>

  <rect x="40" y="274" width="55" height="11" rx="5.5" fill="#c792ea"/>
  <rect x="105" y="274" width="100" height="11" rx="5.5" fill="#82aaff"/>
  <rect x="215" y="274" width="40" height="11" rx="5.5" fill="#f7fdfd"/>
</svg>